# xmcd
#
# Track frame offsets: 
#        150
#        14207
#        25142
#        39264
#        49044
#        60564
#        75747
#        87324
#        99624
#        111004
#        123701
#        132223
#        144692
#        155303
#        165821
#        178644
#        188466
#        201900
#
# Disc length: 2917 seconds
#
# Revision: 2
# Processed by: cddbd v1.5.2PL0 Copyright (c) Steve Scherf et al.
# Submitted via: ExactAudioCopy v1.0b4
#
DISCID=e90b6312
DTITLE=Luiz Gonzaga - Seu Canto, Sua Sanfona e Seus Amigos - Vol.6
DYEAR=2006
DGENRE=Forró
TTITLE0=Luiz Gonzaga e Coro Infantil - Forró das Crianças
TTITLE1=Luiz Gonzaga - Erosão
TTITLE2=Ester Abreu - Ai Ai Portugal
TTITLE3=Luiz Gonzaga - Matuto de Opinião
TTITLE4=Luiz Gonzaga - Toque de Rancho
TTITLE5=Luiz Gonzaga e Sérgio Reis - Baião da Garoa
TTITLE6=Luiz Gonzaga - Nordeste Pra Frente
TTITLE7=Luiz Gonzaga - Olha Pro Céu
TTITLE8=Luiz Gonzaga - Antonio Carlos e Jocafi - Cordel (Ou de Como Um
TTITLE8=a Mulesta Tomou Conta do Sertão)
TTITLE9=Luiz Gonzaga - Vamos Xaxear
TTITLE10=Luiz Gonzaga - Vaqueiro Véio
TTITLE11=4 Ases e 1 Coringa - O Machucado
TTITLE12=Luiz Gonzaga - Pobreza Por Pobreza
TTITLE13=Luiz Gonzaga - Saudade de Helena
TTITLE14=Severino Januário - Serra Talhada
TTITLE15=Luiz Gonzaga - Erva Rasteira
TTITLE16=Luiz Gonzaga - Relógio Baião
TTITLE17=Luiz Gonzaga e Nelson Gonçalves - Asa Branca
EXTD=
EXTT0=
EXTT1=
EXTT2=
EXTT3=
EXTT4=
EXTT5=
EXTT6=
EXTT7=
EXTT8=
EXTT9=
EXTT10=
EXTT11=
EXTT12=
EXTT13=
EXTT14=
EXTT15=
EXTT16=
EXTT17=
PLAYORDER=
